<svg xmlns="http://www.w3.org/2000/svg" viewBox="0 0 73 73"><defs><style>.cls-1{fill:#edc16b;}.cls-2{fill:#1b3249;}.cls-3{fill:#fff;}.cls-4{fill:#f29e8c;}</style></defs><title>Asset 291</title><g id="Layer_2" data-name="Layer 2"><g id="_1" data-name="1"><path class="cls-1" d="M26.5,72.5a26,26,0,1,1,26-26A26,26,0,0,1,26.5,72.5Zm0-46a20,20,0,1,0,20,20A20,20,0,0,0,26.5,26.5Z"/><path class="cls-2" d="M26.5,73A26.5,26.5,0,1,1,53,46.5,26.53,26.53,0,0,1,26.5,73Zm0-52A25.5,25.5,0,1,0,52,46.5,25.53,25.53,0,0,0,26.5,21Zm0,46A20.5,20.5,0,1,1,47,46.5,20.53,20.53,0,0,1,26.5,67Zm0-40A19.5,19.5,0,1,0,46,46.5,19.53,19.53,0,0,0,26.5,27Z"/><path class="cls-3" d="M26.5,70A23.52,23.52,0,0,1,3,46.5a.5.5,0,0,1,1,0A22.52,22.52,0,0,0,26.5,69a.5.5,0,0,1,0,1Z"/><path class="cls-4" d="M49.5,56.5a23,23,0,1,1,23-23A23,23,0,0,1,49.5,56.5Zm0-40a17,17,0,1,0,17,17A17,17,0,0,0,49.5,16.5Z"/><path class="cls-2" d="M49.5,57A23.5,23.5,0,1,1,73,33.5,23.52,23.52,0,0,1,49.5,57Zm0-46A22.5,22.5,0,1,0,72,33.5,22.52,22.52,0,0,0,49.5,11Zm0,40A17.5,17.5,0,1,1,67,33.5,17.52,17.52,0,0,1,49.5,51Zm0-34A16.5,16.5,0,1,0,66,33.5,16.52,16.52,0,0,0,49.5,17Z"/><polygon class="cls-3" points="46.5 11.5 52.5 11.5 57.5 4.5 54.5 0.5 44.5 0.5 41.5 4.5 46.5 11.5"/><path class="cls-2" d="M52.5,12h-6a.52.52,0,0,1-.41-.21l-5-7a.51.51,0,0,1,0-.59l3-4a.48.48,0,0,1,.4-.2h10a.48.48,0,0,1,.4.2l3,4a.51.51,0,0,1,0,.59l-5,7A.52.52,0,0,1,52.5,12Zm-5.74-1h5.48l4.64-6.49L54.25,1h-9.5L42.12,4.51Z"/><path class="cls-3" d="M49.5,54A20.53,20.53,0,0,1,29,33.5a.5.5,0,0,1,1,0A19.53,19.53,0,0,0,49.5,53a.5.5,0,0,1,0,1Z"/></g></g></svg>