<svg xmlns="http://www.w3.org/2000/svg" viewBox="0 0 73 73"><defs><style>.cls-1{fill:#edc16b;}.cls-2{fill:#1b3249;}.cls-3{fill:#fff;}.cls-4{fill:#f29e8c;}</style></defs><title>Asset 331</title><g id="Layer_2" data-name="Layer 2"><g id="_1" data-name="1"><polygon class="cls-1" points="0.5 31.48 36.5 5.83 72.5 31.48 72.5 72.5 0.5 72.5 0.5 31.48"/><path class="cls-2" d="M72.5,73H.5a.5.5,0,0,1-.5-.5v-41a.49.49,0,0,1,.21-.4l36-25.64a.48.48,0,0,1,.58,0l18,12.82C73,31.22,73,31.22,73,31.47v41A.5.5,0,0,1,72.5,73ZM1,72H72V31.73L36.5,6.45,1,31.73Z"/><rect class="cls-3" x="12.5" y="0.5" width="48" height="72"/><path class="cls-2" d="M60.5,73h-48a.5.5,0,0,1-.5-.5V.5a.5.5,0,0,1,.5-.5h48a.5.5,0,0,1,.5.5v72A.5.5,0,0,1,60.5,73ZM13,72H60V1H13Z"/><polygon class="cls-1" points="0.5 72.5 36.5 46.86 72.5 72.5 0.5 72.5"/><path class="cls-2" d="M72.5,73H.5A.5.5,0,0,1,0,72.65a.51.51,0,0,1,.19-.56l36-25.64a.51.51,0,0,1,.58,0l36,25.64a.51.51,0,0,1,.19.56A.5.5,0,0,1,72.5,73ZM2.06,72H70.94L36.5,47.47Z"/><polygon class="cls-1" points="0.5 31.48 0.5 72.5 29.3 51.99 0.5 31.48"/><path class="cls-2" d="M.5,73a.46.46,0,0,1-.23-.06A.48.48,0,0,1,0,72.5v-41A.5.5,0,0,1,.27,31a.51.51,0,0,1,.52,0l28.8,20.51a.51.51,0,0,1,.21.41.49.49,0,0,1-.21.4L.79,72.91A.52.52,0,0,1,.5,73ZM1,32.44V71.53L28.44,52Z"/><polygon class="cls-1" points="72.5 31.48 43.7 51.99 72.5 72.5 72.5 31.48"/><path class="cls-2" d="M72.5,73a.52.52,0,0,1-.29-.09L43.41,52.39a.49.49,0,0,1-.21-.4.51.51,0,0,1,.21-.41l28.8-20.51a.49.49,0,0,1,.52,0,.5.5,0,0,1,.27.44v41a.48.48,0,0,1-.27.44A.46.46,0,0,1,72.5,73ZM44.56,52,72,71.53V32.44Z"/><path class="cls-2" d="M52.5,29h-16a.5.5,0,0,1,0-1h16a.5.5,0,0,1,0,1Z"/><path class="cls-2" d="M32.5,29h-12a.5.5,0,0,1,0-1h12a.5.5,0,0,1,0,1Z"/><path class="cls-2" d="M52.5,33h-7a.5.5,0,0,1,0-1h7a.5.5,0,0,1,0,1Z"/><path class="cls-2" d="M41.5,33h-21a.5.5,0,0,1,0-1h21a.5.5,0,0,1,0,1Z"/><path class="cls-2" d="M52.5,37h-18a.5.5,0,0,1,0-1h18a.5.5,0,0,1,0,1Z"/><path class="cls-2" d="M30.5,37h-10a.5.5,0,0,1,0-1h10a.5.5,0,0,1,0,1Z"/><path class="cls-2" d="M42.5,41h-22a.5.5,0,0,1,0-1h22a.5.5,0,0,1,0,1Z"/><path class="cls-4" d="M42.1,11.23a4.73,4.73,0,0,0-8.8-2.4,4.73,4.73,0,0,0-8.8,2.4c0,5.57,8.8,10.94,8.8,10.94S42.1,16.8,42.1,11.23Z"/><path class="cls-2" d="M33.3,22.67A.48.48,0,0,1,33,22.6c-.37-.22-9-5.59-9-11.37A5.22,5.22,0,0,1,33.3,8a5.22,5.22,0,0,1,9.3,3.27c0,.22,0,.44,0,.66a.5.5,0,0,1-.55.45.5.5,0,0,1-.44-.56,5.07,5.07,0,0,0,0-.55,4.22,4.22,0,0,0-7.87-2.14.52.52,0,0,1-.86,0A4.22,4.22,0,0,0,25,11.23c0,4.7,6.86,9.42,8.3,10.35.17-.11.43-.28.74-.5a.5.5,0,0,1,.58.82c-.65.45-1.06.7-1.06.7A.48.48,0,0,1,33.3,22.67Z"/><path class="cls-4" d="M48.5,16.75a3.67,3.67,0,0,0-6.83-1.86,3.67,3.67,0,0,0-6.83,1.86c0,4.32,6.83,8.5,6.83,8.5S48.5,21.07,48.5,16.75Z"/><path class="cls-2" d="M41.67,25.75a.5.5,0,0,1-.26-.08c-.29-.17-7.07-4.37-7.07-8.92A4.17,4.17,0,0,1,41.67,14,4.17,4.17,0,0,1,49,16.75c0,4.55-6.78,8.75-7.07,8.92A.5.5,0,0,1,41.67,25.75ZM38.51,13.58a3.17,3.17,0,0,0-3.17,3.17c0,3.53,5.11,7.1,6.33,7.9,1.22-.8,6.33-4.37,6.33-7.9a3.17,3.17,0,0,0-5.9-1.61.51.51,0,0,1-.86,0A3.2,3.2,0,0,0,38.51,13.58Z"/><path class="cls-3" d="M50.5,69h-22a.5.5,0,0,1,0-1h22a.5.5,0,0,1,0,1Z"/><path class="cls-3" d="M23.51,69h-9a.5.5,0,0,1,0-1h9a.5.5,0,1,1,0,1Z"/></g></g></svg>