<svg xmlns="http://www.w3.org/2000/svg" viewBox="0 0 73 73"><defs><style>.cls-1{fill:#f29e8c;}.cls-2{fill:#1b3249;}.cls-3{fill:#edc16b;}.cls-4{fill:#fff;}</style></defs><title>Asset 21</title><g id="Layer_2" data-name="Layer 2"><g id="_1" data-name="1"><path class="cls-1" d="M10.07,2.39S27.63,21.27,51.73,21.27a20.77,20.77,0,0,1,5.54,40.79V56.23a15.23,15.23,0,0,0-5.54-29.42c-26.46,0-41.54,15.93-41.54,15.93Z"/><path class="cls-2" d="M57.27,62.56a.45.45,0,0,1-.3-.1.48.48,0,0,1-.2-.4V56.23a.51.51,0,0,1,.32-.47,14.73,14.73,0,0,0-5.36-28.45c-25.93,0-41,15.61-41.17,15.77a.51.51,0,0,1-.87-.34L9.57,2.39a.51.51,0,0,1,.87-.34c.17.19,17.7,18.72,41.29,18.72A21.27,21.27,0,0,1,57.4,62.54.3.3,0,0,1,57.27,62.56Zm.5-6v4.82a20.27,20.27,0,0,0-6-39.62c-21,0-37.3-14.43-41.15-18.17l.11,38a61.87,61.87,0,0,1,41-15.26,15.73,15.73,0,0,1,6,30.26Z"/><path class="cls-3" d="M72.18,38.5H47.5v4h25c0-.15,0-.31,0-.46A20.62,20.62,0,0,0,72.18,38.5Z"/><path class="cls-2" d="M72.48,43h-25a.5.5,0,0,1-.5-.5v-4a.5.5,0,0,1,.5-.5H72.18a.5.5,0,0,1,.49.42A21.36,21.36,0,0,1,73,42c0,.1,0,.19,0,.29v.18A.51.51,0,0,1,72.48,43ZM48,42H72a18.86,18.86,0,0,0-.25-3H48Z"/><path class="cls-3" d="M14.35,22.65c0,10.71-3.1,22.16-6.93,22.16S.5,33.36.5,22.65,3.6.5,7.42.5,14.35,12,14.35,22.65Z"/><path class="cls-2" d="M7.42,45.31C3.05,45.31,0,33.37,0,22.65S3.05,0,7.42,0s7.43,11.94,7.43,22.65S11.8,45.31,7.42,45.31ZM7.42,1C4.18,1,1,11.73,1,22.65S4.18,44.31,7.42,44.31s6.43-10.73,6.43-21.66S10.66,1,7.42,1Z"/><path class="cls-4" d="M4,26.14a.51.51,0,0,1-.5-.48c0-1-.07-2-.07-3,0-6.5,1-13.09,2.39-15.67a.5.5,0,1,1,.88.48C5.4,9.87,4.42,16.4,4.42,22.65c0,1,0,2,.07,3a.5.5,0,0,1-.47.53Z"/><path class="cls-4" d="M5.25,35.71a.5.5,0,0,1-.49-.38,46.47,46.47,0,0,1-1-6.57.51.51,0,0,1,.45-.55.52.52,0,0,1,.55.45,44.59,44.59,0,0,0,1,6.43.51.51,0,0,1-.36.61Z"/><path class="cls-2" d="M52.5,47h-36a.5.5,0,0,1,0-1h36a.5.5,0,0,1,0,1Z"/><path class="cls-2" d="M34.5,51a.5.5,0,0,1-.5-.5v-6a.5.5,0,0,1,1,0v6A.5.5,0,0,1,34.5,51Z"/><path class="cls-3" d="M13.5,50.5h42a2,2,0,0,1,2,2v20a0,0,0,0,1,0,0h-46a0,0,0,0,1,0,0v-20A2,2,0,0,1,13.5,50.5Z"/><path class="cls-2" d="M57.5,73h-46a.5.5,0,0,1-.5-.5v-20A2.5,2.5,0,0,1,13.5,50h42A2.5,2.5,0,0,1,58,52.5v20A.5.5,0,0,1,57.5,73ZM12,72H57V52.5A1.5,1.5,0,0,0,55.5,51h-42A1.5,1.5,0,0,0,12,52.5Z"/><path class="cls-4" d="M50.5,55.5h-32a2,2,0,0,1-2,2v8a2,2,0,0,1,2,2h32a2,2,0,0,1,2-2v-8A2,2,0,0,1,50.5,55.5Z"/><path class="cls-2" d="M50.5,68h-32a.5.5,0,0,1-.5-.5A1.5,1.5,0,0,0,16.5,66a.5.5,0,0,1-.5-.5v-8a.5.5,0,0,1,.5-.5A1.5,1.5,0,0,0,18,55.5a.5.5,0,0,1,.5-.5h32a.5.5,0,0,1,.5.5A1.5,1.5,0,0,0,52.5,57a.5.5,0,0,1,.5.5v8a.5.5,0,0,1-.5.5A1.5,1.5,0,0,0,51,67.5.5.5,0,0,1,50.5,68ZM19,67h31.1a2.5,2.5,0,0,1,2-2V58a2.5,2.5,0,0,1-2-2H19A2.5,2.5,0,0,1,17,58v7.1A2.5,2.5,0,0,1,19,67Z"/><circle class="cls-3" cx="47.5" cy="40.5" r="3"/><path class="cls-2" d="M47.5,44A3.5,3.5,0,1,1,51,40.5,3.5,3.5,0,0,1,47.5,44Zm0-6A2.5,2.5,0,1,0,50,40.5,2.5,2.5,0,0,0,47.5,38Z"/><path class="cls-2" d="M47.5,47a.5.5,0,0,1-.5-.5v-3a.5.5,0,0,1,1,0v3A.5.5,0,0,1,47.5,47Z"/><path class="cls-2" d="M60.5,73H8.5a.5.5,0,0,1,0-1h52a.5.5,0,0,1,0,1Z"/></g></g></svg>